<svg xmlns="http://www.w3.org/2000/svg" width="160" height="37" viewBox="0 0 160 37">
    <g fill="#00829A" fill-rule="nonzero">
        <path d="M28.22 36.273c-6.9 0-11.36-4.823-11.36-12.29 0-7.496 4.46-12.338 11.36-12.338 6.885 0 11.51 4.957 11.51 12.337 0 7.468-4.52 12.29-11.51 12.29v.001zm0-20.084c-3.685 0-5.885 2.91-5.885 7.792 0 4.734 2.31 7.793 5.886 7.793 3.78 0 6.033-2.912 6.033-7.793 0-4.734-2.367-7.793-6.032-7.793l-.002.001zm23.3 19.886c-3.65 0-6.198-.553-9.363-1.508l-.36-.11V.854L47.22 0v14.02c1.997-1.743 4.158-2.595 6.58-2.595 5.967 0 9.823 4.406 9.823 11.788 0 8.324-5.13 12.862-12.103 12.862zm-4.3-5.425c1.25.437 2.29.644 4.25.644 3.923 0 6.678-2.287 6.678-7.882 0-4.578-1.912-7.056-4.993-7.056-2.02 0-4.018 1.188-5.935 3.537V30.65zm29.222 5.55c-6.29 0-10.607-5.023-10.607-12.25 0-7.23 4.412-12.3 10.75-12.3 2.722 0 5.02.704 6.757 2.02l-.327 2.253c-1.784-1.41-3.85-2.3-6.478-2.3-5.07 0-8.496 4.317-8.496 10.278 0 5.963 3.427 10.327 8.497 10.327 2.676 0 5.023-1.03 6.9-2.487l.282 2.113c-1.74 1.315-4.366 2.347-7.278 2.347m32.191-22.579c-5.115 0-8.448 4.177-8.448 10.28 0 6.243 3.38 10.325 8.448 10.325 5.165 0 8.497-4.082 8.497-10.326 0-6.1-3.332-10.278-8.497-10.278m-.045 22.578c-6.29 0-10.608-5.023-10.608-12.25 0-7.23 4.41-12.3 10.653-12.3 6.29 0 10.704 4.976 10.704 12.25 0 7.232-4.46 12.3-10.75 12.3m39.163-22.157h-4.18v19.763h4.18c6.1 0 10.043-3.334 10.043-9.905 0-6.383-4.083-9.858-10.044-9.858m-.143 21.733h-6.242V12.073h6.29c7.886 0 12.345 4.74 12.345 11.828 0 7.277-4.834 11.877-12.393 11.877M136.748 11.725v15.088c0 4.506-2.346 7.37-6.71 7.37-4.367 0-6.62-3.1-6.62-7.56v-14.55l-2.113-.332v15.212c0 5.447 3.192 9.2 8.732 9.2 5.538 0 8.918-3.66 8.918-9.388V12.072l-2.207-.347zM97.744 33.807h-9.2V11.725l-2.206.347v23.705h11.687l-.281-1.97zM4.395 36.124c-1.188 0-2.375-.165-3.16-.305l-.355-.062-.88-5.34.757.198c1.017.265 1.988.43 3.688.43 3.076 0 4.447-1.417 4.447-4.597V5.744l5.675-.893v21.993c0 5.984-3.613 9.28-10.172 9.28z"/>
    </g>
</svg>
